# Blender v2.93.5 OBJ File: ''
# www.blender.org
o Cube_Cube.001
v -1.000000 -1.000000 1.000000
v -1.000000 1.000000 1.000000
v -1.000000 -1.000000 -1.000000
v -1.000000 1.000000 -1.000000
v 1.000000 -1.000000 1.000000
v 1.000000 1.000000 1.000000
v 1.000000 -1.000000 -1.000000
v 1.000000 1.000000 -1.000000
vt 0.023438 1.000000
vt 0.015625 0.992187
vt 0.023438 0.992188
vt 0.015625 0.992187
vt 0.023438 1.000000
vt 0.015625 1.000000
vt 0.015625 1.000000
vt 0.023438 0.992188
vt 0.015625 1.000000
vt 0.023438 1.000000
vt 0.023438 0.992188
vt 0.015625 1.000000
vt 0.015625 1.000000
vt 0.023438 0.992188
vt 0.023438 1.000000
vt 0.023438 0.992188
vt 0.015625 0.992188
vt 0.015625 0.992188
vn -1.0000 0.0000 0.0000
vn 0.0000 0.0000 -1.0000
vn 1.0000 0.0000 0.0000
vn 0.0000 0.0000 1.0000
vn 0.0000 -1.0000 0.0000
vn 0.0000 1.0000 0.0000
s off
f 2/1/1 3/2/1 1/3/1
f 4/4/2 7/5/2 3/6/2
f 8/7/3 5/8/3 7/5/3
f 6/9/4 1/3/4 5/10/4
f 7/11/5 1/12/5 3/2/5
f 4/13/6 6/14/6 8/15/6
f 2/1/1 4/13/1 3/2/1
f 4/4/2 8/16/2 7/5/2
f 8/7/3 6/17/3 5/8/3
f 6/9/4 2/18/4 1/3/4
f 7/11/5 5/10/5 1/12/5
f 4/13/6 2/18/6 6/14/6
