# Blender v2.93.5 OBJ File: ''
# www.blender.org
o Cube
v 1.000000 1.000000 -1.000000
v 1.110188 -1.155483 -1.053131
v 1.000000 1.000000 1.000000
v 1.000000 -1.000000 1.000000
v -1.000000 1.000000 -1.000000
v -1.000000 -1.000000 -1.000000
v -1.000000 1.000000 1.000000
v -1.000000 -1.000000 1.000000
v -1.000000 -1.000000 0.000000
v 0.000000 -1.000000 -1.000000
v 1.110188 -0.155483 -1.053131
v -1.000000 0.000000 1.000000
v 1.000000 0.000000 1.000000
v -1.000000 0.000000 -1.000000
v 0.000000 1.000000 1.000000
v 1.000000 1.000000 0.000000
v 0.000000 -1.000000 1.000000
v -1.000000 1.000000 0.000000
v 0.000000 1.000000 -1.000000
v 1.110188 -1.155483 -0.053131
v 0.000000 0.000000 -1.000000
v 1.110188 -0.155483 -0.053131
v 0.000000 -1.000000 0.000000
v -1.000000 0.000000 0.000000
v 0.000000 0.000000 1.000000
v 0.000000 1.000000 0.000000
vt 0.875000 0.625000
vt 0.750000 0.750000
vt 0.750000 0.625000
vt 0.625000 0.875000
vt 0.500000 1.000000
vt 0.500000 0.875000
vt 0.625000 0.125000
vt 0.500000 0.250000
vt 0.500000 0.125000
vt 0.250000 0.625000
vt 0.375000 0.750000
vt 0.250000 0.750000
vt 0.625000 0.625000
vt 0.500000 0.750000
vt 0.500000 0.625000
vt 0.500000 0.375000
vt 0.625000 0.500000
vt 0.500000 0.500000
vt 0.375000 0.375000
vt 0.375000 0.500000
vt 0.375000 0.250000
vt 0.625000 0.250000
vt 0.375000 0.625000
vt 0.125000 0.750000
vt 0.125000 0.625000
vt 0.250000 0.500000
vt 0.125000 0.500000
vt 0.375000 0.125000
vt 0.500000 0.000000
vt 0.375000 0.000000
vt 0.625000 0.000000
vt 0.375000 1.000000
vt 0.375000 0.875000
vt 0.625000 0.750000
vt 0.750000 0.500000
vt 0.875000 0.500000
vt 0.875000 0.750000
vt 0.625000 1.000000
vt 0.625000 0.375000
vn 0.0000 1.0000 0.0000
vn 0.0000 0.0000 1.0000
vn -1.0000 0.0000 0.0000
vn 0.0000 -1.0000 0.0000
vn 0.9918 0.0904 0.0904
vn -0.0419 0.0419 -0.9982
vn -0.0478 0.0000 -0.9989
vn 0.0000 0.0000 -1.0000
vn 0.9946 0.0000 0.1041
vn 1.0000 0.0000 0.0000
vn 0.9955 0.0949 0.0000
vn -0.1387 -0.9903 0.0000
vn -0.1313 -0.9826 0.1313
s off
f 18/1/1 15/2/1 26/3/1
f 15/4/2 12/5/2 25/6/2
f 18/7/3 14/8/3 24/9/3
f 23/10/4 4/11/4 17/12/4
f 16/13/5 13/14/5 22/15/5
f 21/16/6 1/17/6 11/18/6
f 10/19/7 11/18/7 2/20/7
f 14/8/8 10/19/8 6/21/8
f 5/22/8 21/16/8 14/8/8
f 22/15/9 4/11/9 20/23/9
f 11/18/10 20/23/10 2/20/10
f 1/17/11 22/15/11 11/18/11
f 23/10/4 8/24/4 9/25/4
f 10/26/4 9/25/4 6/27/4
f 10/26/12 20/23/12 23/10/12
f 24/9/3 6/21/3 9/28/3
f 12/29/3 9/28/3 8/30/3
f 7/31/3 24/9/3 12/29/3
f 25/6/2 8/32/2 17/33/2
f 13/14/2 17/33/2 4/11/2
f 3/34/2 25/6/2 13/14/2
f 26/3/1 3/34/1 16/13/1
f 19/35/1 16/13/1 1/17/1
f 5/36/1 26/3/1 19/35/1
f 18/1/1 7/37/1 15/2/1
f 15/4/2 7/38/2 12/5/2
f 18/7/3 5/22/3 14/8/3
f 23/10/13 20/23/13 4/11/13
f 16/13/10 3/34/10 13/14/10
f 21/16/8 19/39/8 1/17/8
f 10/19/7 21/16/7 11/18/7
f 14/8/8 21/16/8 10/19/8
f 5/22/8 19/39/8 21/16/8
f 22/15/9 13/14/9 4/11/9
f 11/18/10 22/15/10 20/23/10
f 1/17/11 16/13/11 22/15/11
f 23/10/4 17/12/4 8/24/4
f 10/26/4 23/10/4 9/25/4
f 10/26/12 2/20/12 20/23/12
f 24/9/3 14/8/3 6/21/3
f 12/29/3 24/9/3 9/28/3
f 7/31/3 18/7/3 24/9/3
f 25/6/2 12/5/2 8/32/2
f 13/14/2 25/6/2 17/33/2
f 3/34/2 15/4/2 25/6/2
f 26/3/1 15/2/1 3/34/1
f 19/35/1 26/3/1 16/13/1
f 5/36/1 18/1/1 26/3/1
