# Blender v2.93.5 OBJ File: ''
# www.blender.org
o Cube_Cube.001
v -1.000000 -1.000000 1.000000
v -1.000000 1.000000 1.000000
v -1.000000 -1.000000 -1.000000
v -1.000000 1.000000 -1.000000
v 1.000000 -1.000000 1.000000
v 1.000000 1.000000 1.000000
v 1.000000 -1.000000 -1.000000
v 1.000000 1.000000 -1.000000
vt 0.039062 0.992188
vt 0.031250 1.000000
vt 0.039062 1.000000
vt 0.039062 1.000000
vt 0.031250 0.992188
vt 0.031250 1.000000
vt 0.039062 0.992188
vt 0.031250 0.992188
vt 0.039062 0.992188
vt 0.031250 0.992188
vt 0.039062 1.000000
vt 0.031250 1.000000
vn -1.0000 0.0000 0.0000
vn 0.0000 0.0000 -1.0000
vn 1.0000 0.0000 0.0000
vn 0.0000 0.0000 1.0000
vn 0.0000 -1.0000 0.0000
vn 0.0000 1.0000 0.0000
s off
f 2/1/1 3/2/1 1/3/1
f 4/4/2 7/5/2 3/2/2
f 8/6/3 5/7/3 7/5/3
f 6/8/4 1/3/4 5/7/4
f 7/5/5 1/3/5 3/2/5
f 4/4/6 6/8/6 8/9/6
f 2/1/1 4/10/1 3/2/1
f 4/4/2 8/9/2 7/5/2
f 8/6/3 6/11/3 5/7/3
f 6/8/4 2/12/4 1/3/4
f 7/5/5 5/7/5 1/3/5
f 4/4/6 2/12/6 6/8/6
